<?xml version="1.0"?>
<svg xmlns="http://www.w3.org/2000/svg" id="Layer_1" data-name="Layer 1" viewBox="0 0 128 128" width="512" height="512"><title>TROPHY</title><path d="M58.1,63.726c-11.106-4.352-12.353-12.4-12.4-12.763a1.75,1.75,0,0,0-3.472.443c.053.423,1.447,10.426,14.6,15.579A1.75,1.75,0,0,0,58.1,63.726Z"/><path d="M80.065,30.053,70.049,28.6l-4.479-9.076a1.75,1.75,0,0,0-3.139,0L57.951,28.6,47.935,30.053a1.75,1.75,0,0,0-.97,2.985L54.213,40.1,52.5,50.079a1.75,1.75,0,0,0,2.539,1.845L64,47.214l8.959,4.71A1.75,1.75,0,0,0,75.5,50.079L73.787,40.1l7.248-7.064a1.751,1.751,0,0,0-.97-2.985Zm-9.381,8.186a1.751,1.751,0,0,0-.5,1.549l1.268,7.388-6.635-3.488a1.747,1.747,0,0,0-1.629,0l-6.635,3.488,1.267-7.388a1.749,1.749,0,0,0-.5-1.549l-5.368-5.232,7.417-1.078a1.75,1.75,0,0,0,1.318-.958L64,24.25l3.317,6.722a1.751,1.751,0,0,0,1.317.958l7.418,1.078Z"/><path d="M108.84,19.422a4.583,4.583,0,0,0-4.46-3.608H93.322V10a1.75,1.75,0,0,0-1.75-1.75H36.428A1.75,1.75,0,0,0,34.678,10v5.814H23.62a4.583,4.583,0,0,0-4.46,3.609,37.438,37.438,0,0,0,5.178,26.155,37.038,37.038,0,0,0,13.108,12.04,29.455,29.455,0,0,0,18.265,15.7v6.962a1.75,1.75,0,0,0,1.75,1.75h.672V92.75H47.172a1.75,1.75,0,0,0-1.75,1.75v11.138A12.509,12.509,0,0,0,34.678,118a1.75,1.75,0,0,0,1.75,1.75H91.572a1.75,1.75,0,0,0,1.75-1.75,12.509,12.509,0,0,0-10.744-12.362V94.5a1.75,1.75,0,0,0-1.75-1.75H69.867V82.033h.672a1.75,1.75,0,0,0,1.75-1.75V73.32a29.455,29.455,0,0,0,18.265-15.7,37.028,37.028,0,0,0,13.107-12.04A37.385,37.385,0,0,0,108.84,19.422ZM93.322,24.933h6.957a26.809,26.809,0,0,1-6.957,19.087Zm-65.6,0h6.958V44.021A26.805,26.805,0,0,1,27.72,24.934Zm-.446,18.738a33.642,33.642,0,0,1-4.69-23.519,1.065,1.065,0,0,1,1.037-.839H34.678v2.12h-8.61a1.75,1.75,0,0,0-1.744,1.6A30.276,30.276,0,0,0,34.942,49.077a29.12,29.12,0,0,0,.6,3.18A32.327,32.327,0,0,1,27.274,43.672ZM89.651,116.25h-51.3A9.015,9.015,0,0,1,47.178,109H80.822A9.015,9.015,0,0,1,89.651,116.25ZM79.078,105.5H48.922V96.25H79.078ZM66.367,92.75H61.633V82.033h4.734Zm2.422-14.217H59.211V74.123a29.046,29.046,0,0,0,9.578,0ZM64,71.021A25.852,25.852,0,0,1,38.178,45.2V11.75H89.822V45.2A25.852,25.852,0,0,1,64,71.021Zm36.726-27.349a32.327,32.327,0,0,1-8.267,8.584,29.121,29.121,0,0,0,.6-3.18c10.818-9.046,11.04-21.186,10.618-26.044a1.749,1.749,0,0,0-1.743-1.6h-8.61V19.314H104.38a1.066,1.066,0,0,1,1.037.839A33.593,33.593,0,0,1,100.726,43.672Z"/></svg>
