<svg id="Layer_1" data-name="Layer 1" xmlns="http://www.w3.org/2000/svg" xmlns:xlink="http://www.w3.org/1999/xlink" viewBox="0 0 284 335"><defs><style>.cls-1{opacity:0.2;fill:url(#linear-gradient);}.cls-2{fill:#071b3d;}.cls-3{fill:url(#linear-gradient-2);}.cls-4{fill:url(#linear-gradient-3);}.cls-5{fill:url(#linear-gradient-4);}.cls-6{fill:#151f5b;}.cls-7{fill:#fff;opacity:0.34;isolation:isolate;}.cls-8{fill:#222a72;}.cls-9{fill:url(#linear-gradient-5);}.cls-10{fill:url(#linear-gradient-6);}.cls-11{fill:url(#linear-gradient-7);}.cls-12{fill:url(#linear-gradient-8);}.cls-13{fill:url(#linear-gradient-9);}.cls-14{fill:url(#linear-gradient-10);}.cls-15{fill:url(#linear-gradient-11);}.cls-16{fill:#161e51;}.cls-17{fill:none;}.cls-18{fill:url(#linear-gradient-12);}.cls-19{fill:url(#linear-gradient-13);}.cls-20{fill:url(#linear-gradient-14);}.cls-21{fill:url(#linear-gradient-15);}.cls-22{fill:url(#linear-gradient-16);}.cls-23{fill:url(#linear-gradient-17);}.cls-24{fill:url(#linear-gradient-18);}.cls-25{fill:url(#linear-gradient-19);}.cls-26{fill:#69d7e0;}.cls-27{fill:url(#linear-gradient-20);}</style><linearGradient id="linear-gradient" x1="-1542.06" y1="202.11" x2="-1430" y2="119.84" gradientTransform="matrix(-0.5, 0.87, -0.58, -1, -508.49, 1721.1)" gradientUnits="userSpaceOnUse"><stop offset="0" stop-color="#34c2eb"/><stop offset="1" stop-color="#1a7fc3"/></linearGradient><linearGradient id="linear-gradient-2" x1="89.85" y1="92.19" x2="84.78" y2="108.66" gradientUnits="userSpaceOnUse"><stop offset="0.42" stop-color="#f1d6d3"/><stop offset="0.65" stop-color="#eec6d9"/><stop offset="1" stop-color="#f4eccb"/></linearGradient><linearGradient id="linear-gradient-3" x1="84.02" y1="94.87" x2="106.17" y2="166.2" gradientUnits="userSpaceOnUse"><stop offset="0" stop-color="#eec6d9"/><stop offset="0.42" stop-color="#785757"/><stop offset="1" stop-color="#f4eccb"/></linearGradient><linearGradient id="linear-gradient-4" x1="94.58" y1="115.14" x2="110.36" y2="115.14" gradientUnits="userSpaceOnUse"><stop offset="0" stop-color="#c3caf4"/><stop offset="1" stop-color="#1a7fc3"/></linearGradient><linearGradient id="linear-gradient-5" x1="92.08" y1="155.64" x2="94.08" y2="155.64" gradientUnits="userSpaceOnUse"><stop offset="0" stop-color="#183866"/><stop offset="1" stop-color="#1a7fc3"/></linearGradient><linearGradient id="linear-gradient-6" x1="64.72" y1="140.72" x2="103.84" y2="140.72" xlink:href="#linear-gradient-4"/><linearGradient id="linear-gradient-7" x1="90.45" y1="153.81" x2="62.51" y2="157.62" xlink:href="#linear-gradient-4"/><linearGradient id="linear-gradient-8" x1="78.83" y1="106.02" x2="92.22" y2="106.02" xlink:href="#linear-gradient-4"/><linearGradient id="linear-gradient-9" x1="2413.52" y1="847.54" x2="2451.16" y2="847.54" gradientTransform="translate(-564.91 2619.72) rotate(-94.56)" gradientUnits="userSpaceOnUse"><stop offset="0" stop-color="#eec6d9"/><stop offset="0.42" stop-color="#f1d6d3"/><stop offset="1" stop-color="#f4eccb"/></linearGradient><linearGradient id="linear-gradient-10" x1="62.68" y1="128.73" x2="81.48" y2="128.73" xlink:href="#linear-gradient-4"/><linearGradient id="linear-gradient-11" x1="75.48" y1="89.41" x2="98.01" y2="89.41" gradientTransform="matrix(1, 0, 0, 1, 0, 0)" xlink:href="#linear-gradient-9"/><linearGradient id="linear-gradient-12" x1="90.95" y1="132.02" x2="115.46" y2="132.02" gradientTransform="matrix(1, 0, 0, 1, 0, 0)" xlink:href="#linear-gradient-9"/><linearGradient id="linear-gradient-13" x1="79.04" y1="132.51" x2="82.41" y2="132.51" gradientTransform="matrix(1, 0, 0, 1, 0, 0)" xlink:href="#linear-gradient-9"/><linearGradient id="linear-gradient-14" x1="93.7" y1="134.45" x2="64.49" y2="136.14" xlink:href="#linear-gradient-3"/><linearGradient id="linear-gradient-15" x1="148.55" y1="191.07" x2="96.74" y2="188.07" xlink:href="#linear-gradient-4"/><linearGradient id="linear-gradient-16" x1="-18.08" y1="-47.74" x2="56.22" y2="-47.74" gradientTransform="matrix(0.87, -0.5, 0, 1.15, 135.03, 256.14)" xlink:href="#linear-gradient-4"/><linearGradient id="linear-gradient-17" x1="179.69" y1="80.16" x2="195.09" y2="124.46" xlink:href="#linear-gradient-4"/><linearGradient id="linear-gradient-18" x1="36.1" y1="-78.62" x2="110.4" y2="-78.62" gradientTransform="matrix(0.87, -0.5, 0, 1.15, 135.03, 256.14)" xlink:href="#linear-gradient-4"/><linearGradient id="linear-gradient-19" x1="237.32" y1="181.87" x2="178.47" y2="192" xlink:href="#linear-gradient-4"/><linearGradient id="linear-gradient-20" x1="59.51" y1="-23.26" x2="107.72" y2="-23.26" gradientTransform="matrix(0.87, -0.5, 0, 1.15, 135.03, 256.14)" xlink:href="#linear-gradient-4"/></defs><title>Revisions</title><ellipse class="cls-1" cx="133.73" cy="269.68" rx="46.27" ry="80.15" transform="translate(-136.67 401.95) rotate(-89.69)"/><path class="cls-2" d="M108.62,253.71c0,1.78-5,2.45-8.54,1.86a11,11,0,0,1-7-4.48c-1.28-1.68-6.67-3.63-6.67-5v-4a12.59,12.59,0,0,1,.78-4l8.08-.47s2.09,2.72,2.25,3.82S108.62,251.94,108.62,253.71Z"/><path class="cls-2" d="M77.93,270.44c-2.49-.06-7.32-1.44-8.09-4.56-.51-2.07-.57-8.14-.57-12,0-1.95,0-3.31,0-3.31l9.39,1.79s.39,1.68.89,3.91c.77,3.37,1.83,7.91,2.23,9.6C82.49,268.67,80.81,270.52,77.93,270.44Z"/><path class="cls-2" d="M79.3,255c-.31.49-1.47-.29-3.38,0-2.39.35-4.72,1.56-5.55.79a7.67,7.67,0,0,1-1.1-1.89c0-1.95,0-3.31,0-3.31l9.39,1.79S78.8,252.78,79.3,255Z"/><path class="cls-3" d="M89.47,111.44c-4.18,1.48-8.75-2.91-9.21-4.52a11.35,11.35,0,0,1,0-3.21c.23-2.57.66-5.78.23-6.91,0,0,.83,0,2.07.13,3.63.28,10.78,1.23,10.94,4.15,0,.07,0,.13,0,.2C93.74,105.16,93.58,110,89.47,111.44Z"/><path class="cls-4" d="M93.06,103.12c-3.44-1-12.54-6.32-12.54-6.32.85,2.15-.23,6.91-.23,6.91a1,1,0,0,0,0,.1,4,4,0,0,0,1.14,1.48A8,8,0,0,0,84,106.82a.76.76,0,0,0,.69,0c.14-.1.76.42.81.26-.68-.57-1-3-.67-4.34,1.94,2,4.76,3.55,7.5,2.94Z"/><path class="cls-5" d="M101,102.35c3.47,5.45,9.4,21,9.4,21a18.67,18.67,0,0,1-4.24,4.25,8.6,8.6,0,0,1-3.62,1.65s-6.84-14.39-7.79-19.65S98.47,98.44,101,102.35Z"/><path class="cls-6" d="M101.85,161s-.2,7.06-.4,15c-.22,8.84-.46,18.75-.46,21.15,0,4.57-4.85,43.73-4.85,43.73a3.53,3.53,0,0,1-1.37.75,9.12,9.12,0,0,1-4.68.13c-1.09-.21-2.23-.3-3-3.43,0,0-2.78-28.53-2.14-30.32.84-2.38.51-7.12.84-11.34s0-23.16,0-23.16-2-13.69.51-15.88S101.85,161,101.85,161Z"/><path class="cls-7" d="M101.45,176c-.22,8.84-.46,18.75-.46,21.15,0,4.57-4.85,43.73-4.85,43.73a3.53,3.53,0,0,1-1.37.75c.33-3.84,3.22-37.52,3.58-43.09.38-5.91,0-20.27,0-20.27Z"/><path class="cls-8" d="M91.37,166.92s-.34,8.28-1.52,10.31S86.64,181,86.13,183s-1.69,26-2.2,29.07-5.23,40.32-5.23,40.32-2.78,2.62-9.43,1.52c0,0-2.41-33-1.73-35.93a111.54,111.54,0,0,0,1.86-16.9c0-4.56-2.2-20.11-1.18-26.7S76.33,152.72,91.37,166.92Z"/><path class="cls-7" d="M83.33,182.12s-1,22.18-1.36,25.47-4.87,45.72-4.87,45.72l1.6-.94s5.7-41.85,5.52-43.17,1.91-27.08,1.91-27.08Z"/><path class="cls-9" d="M92.12,172.67l0-1s1.94-22.59,2-32.94v-.1l0,1.1C94.28,150.43,93.07,163.9,92.12,172.67Z"/><path class="cls-10" d="M103.8,132.61c-.26-10.22.16-23.49-1.36-27.55S97.21,98.55,96,99.4s-2.92,3.72-2.92,3.72l-.84,2.74A3.59,3.59,0,0,1,87,107.93l-7-4.05s-2.07.83-9.08,5.11-7,8.24-5.07,18,1.29,49.23,1.29,49.23C77.92,184.5,91,181.79,91,181.79l1.44-.5s7.27-.79,10.65-4.93C103.11,176.36,104.05,142.84,103.8,132.61Z"/><path class="cls-11" d="M87.37,138.09s-1.12,6.6-9,16.76c-4.18,5.38-.23,10.39-.38,15.11-.28,9.15-3.76,10.17-3.76,10.17s-3-1.28-3.93-1.8-3.19-2.11-3.19-2.11l-.38-43.28Z"/><path class="cls-7" d="M93.52,102.86a5.93,5.93,0,0,1,5-.41,13,13,0,0,0,1.34.45c4.6,1.33,1.72,73,1.72,73s-2.34,3.5-3.66,4a16.61,16.61,0,0,0,5.14-3.49s1.72-62.24-.3-70c0,0-1.65-6.18-6.33-7.15s-3.42,3.88-3.42,3.88Z"/><path class="cls-12" d="M92.22,105.88c-1.68,6.09-8.36,2.24-11.6-.08-1.09-.78-1.79-1.38-1.79-1.38l1.62-1.52h0c.53.51,1,1,1.52,1.36C89.22,110.29,92,106.19,92.22,105.88Z"/><path class="cls-7" d="M103.16,108.7l5.78,14.1-2.82,4.76,4.24-4.25s-6.45-15.54-7.92-18.25S103.16,108.7,103.16,108.7Z"/><path class="cls-13" d="M77.91,135.74s9.88-13.25,10.64-14.41.09-3.06.35-5.2,2.43-4.61,3.27-4.67-.08,3.22.29,3.62,1.85-1.25,2.77-2.51,2.3-5.19,3.53-4.61,1.6,7.34.77,9.69-5.44,5.11-6.68,6.65-8,20.07-8,20.07-5.61,5.82-10.06.81S77.91,135.74,77.91,135.74Z"/><path class="cls-14" d="M68.07,111c5.23-3.31,7.24,4.7,8.89,12.68,1,4.73,2.74,6.53,4.52,7.53,0,0-1.69,3.08-2.44,4.11-3.87,5.39-3.31,9.38-1.94,11.88,0,0-10.38-8.6-13.7-19.21C61.25,121.16,64.27,113.42,68.07,111Z"/><path class="cls-7" d="M81.48,131.22l-2,3.48s-1.54,1-4-5.88c-1.78-5.08-2-9.38-3-12.23a4.74,4.74,0,0,0-7.67-1.87s0,0,0,0a20.74,20.74,0,0,1,5-5,64.63,64.63,0,0,1,9.08-5.3l1.79,1.38L71.91,111c3.44,1.16,5,13.36,5.72,15.33C79.07,130.26,81.48,131.22,81.48,131.22Z"/><path class="cls-15" d="M96.52,82.37a3.38,3.38,0,0,1,.7,1.7,45.25,45.25,0,0,1,.14,5.46c0,.76.58,1.52.64,3.17s-1.21,10-5.87,10.54-7.69-2.24-9-3.38a60.79,60.79,0,0,1-4.31-5.19S76.2,90,75.63,87.31s.51-8.17,2.6-8.74L80.32,78a3,3,0,0,1,1.74-1.94c2.39-1.18,4.12-.32,6.21,1,1.77,1.1,3.63,2,5.39,3.15A10.47,10.47,0,0,1,96.52,82.37Z"/><path class="cls-8" d="M97.77,80a3.61,3.61,0,0,1-1.67,2.88,2.56,2.56,0,0,1-1.6.42c-6.42-1.22-7.3,1.8-7.84,2-1,.38-2.12-.48-3.11-.11a2.09,2.09,0,0,0-1.11,2.12c0,.85.29,1.69.25,2.54,0,.32.29,1.06.1,1.37-.06.09-.73-.08-.82-.08l-.51-1A4.6,4.6,0,0,0,80.89,89c-.43-.57-.77-1-1.22-1a1.14,1.14,0,0,0-.66.25c-.94.66-.81,2.14-.25,3.15a19.65,19.65,0,0,1,1.84,2.93,3.5,3.5,0,0,1,0,2.17c-.75.26-1.49-.4-2-1-2.31-3.18-1.59-5.41-4.28-8.29a1.43,1.43,0,0,1-.48-.06A4.29,4.29,0,0,1,71,82.21c.85-5.78,7-5.91,11.27-9.08,1.5-1.11,6.4-6,14.18-1.16C98.85,73.47,98.06,77.16,97.77,80Z"/><path class="cls-16" d="M80.64,96.51c-.75.26-1.49-.4-2-1-2.31-3.18-1.59-5.41-4.28-8.29a1.43,1.43,0,0,1-.48-.06h0a.74.74,0,0,1,0-.49.7.7,0,0,1,.53-.22c1.8-.18,4.44-.36,5.17,1.61a1.14,1.14,0,0,0-.66.25c-.94.66-.81,2.14-.25,3.15a19.65,19.65,0,0,1,1.84,2.93A3.5,3.5,0,0,1,80.64,96.51Z"/><path class="cls-17" d="M94,102.24a1.6,1.6,0,0,0-.43-1,2.26,2.26,0,0,0-.53-.45,6.24,6.24,0,0,0-1.66-.62,52.46,52.46,0,0,1-8.76-3.28"/><path class="cls-18" d="M109.74,124.13s2.87,5.08-.15,9.23c-1.79,2.45-23.12,6.56-23.12,6.56l3.12-7.72Z"/><path class="cls-19" d="M82.41,129.69s-2.73.22-3,2a35.22,35.22,0,0,0-.35,3.66,1.67,1.67,0,0,0,1.69-1.27C81.22,132.65,82.41,129.69,82.41,129.69Z"/><polygon class="cls-20" points="89.53 139.48 92.08 133.64 97.06 129.21 89.32 132.31 86.47 139.92 89.53 139.48"/><polygon class="cls-21" points="180.53 209.17 119.37 246.98 116.18 246.32 116.18 172.48 180.53 135.33 180.53 209.17"/><polygon class="cls-22" points="183.72 209.83 119.37 246.98 119.37 173.14 183.72 135.99 183.72 209.83"/><polygon class="cls-23" points="226.14 145.06 166.3 184.22 161.79 182.21 161.79 108.38 226.14 71.22 230.65 73.23 226.14 145.06"/><polygon class="cls-24" points="230.65 147.07 166.3 184.22 166.3 110.39 230.65 73.23 230.65 147.07"/><polygon class="cls-25" points="224.57 198.63 186.57 223.48 182.82 223.48 182.82 174.82 223.43 151.38 228.32 151.47 224.57 198.63"/><path class="cls-26" d="M144.51,18.84V32.17c0,6.35-3.85,13.72-8.61,16.47l-11.47,6.62s-2.89,15-13.46,24.23c0,0,6.1-9,5.94-19.89l-6.37,3.68c-4.76,2.74-8.62-.17-8.62-6.52V43.43c0-6.34,3.86-13.71,8.62-16.46L135.9,12.33C140.66,9.58,144.51,12.5,144.51,18.84Z"/><polygon class="cls-27" points="228.32 199.38 186.57 223.48 186.57 175.57 228.32 151.47 228.32 199.38"/></svg>