<svg id="Layer_1" data-name="Layer 1" xmlns="http://www.w3.org/2000/svg" xmlns:xlink="http://www.w3.org/1999/xlink" viewBox="0 0 284 335"><defs><style>.cls-1{opacity:0.2;fill:url(#linear-gradient);}.cls-1,.cls-10,.cls-15,.cls-26{isolation:isolate;}.cls-2{fill:url(#linear-gradient-2);}.cls-3{fill:url(#linear-gradient-3);}.cls-4{fill:url(#linear-gradient-4);}.cls-5{fill:url(#linear-gradient-5);}.cls-6{fill:url(#linear-gradient-6);}.cls-7{fill:url(#linear-gradient-7);}.cls-8{fill:url(#linear-gradient-8);}.cls-9{fill:url(#linear-gradient-9);}.cls-10{opacity:0.17;fill:url(#linear-gradient-10);}.cls-11{fill:url(#linear-gradient-11);}.cls-12{fill:#151f5b;}.cls-13{fill:#222a72;}.cls-14{fill:url(#linear-gradient-12);}.cls-15,.cls-26,.cls-44{fill:#fff;}.cls-15{opacity:0.34;}.cls-16{fill:url(#linear-gradient-13);}.cls-17{fill:url(#linear-gradient-14);}.cls-18{fill:url(#linear-gradient-15);}.cls-19{fill:url(#linear-gradient-16);}.cls-20{fill:url(#linear-gradient-17);}.cls-21{fill:url(#linear-gradient-18);}.cls-22{fill:url(#linear-gradient-19);}.cls-23{fill:url(#linear-gradient-20);}.cls-24{fill:url(#linear-gradient-21);}.cls-25{fill:url(#linear-gradient-22);}.cls-26{opacity:0.04;}.cls-27{fill:url(#linear-gradient-23);}.cls-28{fill:url(#linear-gradient-24);}.cls-29{fill:#169099;}.cls-30{fill:#33bdd0;}.cls-31{fill:#69d7e0;}.cls-32{fill:url(#linear-gradient-25);}.cls-33{fill:url(#linear-gradient-26);}.cls-34{fill:#3a4d57;}.cls-35{fill:#52666f;}.cls-36{fill:url(#linear-gradient-27);}.cls-37{fill:url(#linear-gradient-28);}.cls-38{fill:url(#linear-gradient-29);}.cls-39{fill:url(#linear-gradient-30);}.cls-40{fill:url(#linear-gradient-31);}.cls-41{fill:url(#linear-gradient-32);}.cls-42{fill:url(#linear-gradient-33);}.cls-43{fill:url(#linear-gradient-34);}</style><linearGradient id="linear-gradient" x1="-1376.33" y1="426.2" x2="-1264.27" y2="508.47" gradientTransform="matrix(-0.5, 0.87, 0.58, 1, -798.09, 956.2)" gradientUnits="userSpaceOnUse"><stop offset="0" stop-color="#34c2eb"/><stop offset="1" stop-color="#1a7fc3"/></linearGradient><linearGradient id="linear-gradient-2" x1="164.13" y1="77.3" x2="182.31" y2="77.3" gradientTransform="matrix(1, -0.06, -0.06, -1, -81.12, 322.31)" gradientUnits="userSpaceOnUse"><stop offset="0" stop-color="#eec6d9"/><stop offset="0.42" stop-color="#f1d6d3"/><stop offset="1" stop-color="#f4eccb"/></linearGradient><linearGradient id="linear-gradient-3" x1="126.93" y1="215.43" x2="146.9" y2="215.43" gradientTransform="matrix(1, -0.06, -0.06, -1, -81.12, 322.31)" gradientUnits="userSpaceOnUse"><stop offset="0" stop-color="#d09bc0"/><stop offset="0.21" stop-color="#cc93ba"/><stop offset="0.54" stop-color="#c17ea9"/><stop offset="0.95" stop-color="#b05b8d"/><stop offset="0.96" stop-color="#af5a8c"/></linearGradient><linearGradient id="linear-gradient-4" x1="123.82" y1="195.01" x2="138.9" y2="195.01" xlink:href="#linear-gradient-2"/><linearGradient id="linear-gradient-5" x1="159.56" y1="197.65" x2="128.21" y2="195.68" gradientTransform="matrix(1, -0.06, -0.06, -1, -81.12, 322.31)" gradientUnits="userSpaceOnUse"><stop offset="0" stop-color="#eec6d9"/><stop offset="0.42" stop-color="#785757"/><stop offset="1" stop-color="#f4eccb"/></linearGradient><linearGradient id="linear-gradient-6" x1="480.34" y1="-43.42" x2="499.01" y2="-43.42" gradientTransform="matrix(0.96, -0.29, -0.29, -0.96, -393.68, 336.27)" xlink:href="#linear-gradient-3"/><linearGradient id="linear-gradient-7" x1="150.09" y1="148.97" x2="177.97" y2="148.97" gradientTransform="matrix(1, -0.06, -0.06, -1, -81.12, 322.31)" gradientUnits="userSpaceOnUse"><stop offset="0" stop-color="#183866"/><stop offset="1" stop-color="#1a7fc3"/></linearGradient><linearGradient id="linear-gradient-8" x1="147.28" y1="158.04" x2="164.95" y2="158.04" xlink:href="#linear-gradient-2"/><linearGradient id="linear-gradient-9" x1="161.4" y1="146.23" x2="168.15" y2="146.23" xlink:href="#linear-gradient-2"/><linearGradient id="linear-gradient-10" x1="148.39" y1="154.52" x2="162.09" y2="154.52" xlink:href="#linear-gradient-5"/><linearGradient id="linear-gradient-11" x1="143.32" y1="170.52" x2="154.19" y2="170.52" xlink:href="#linear-gradient-7"/><linearGradient id="linear-gradient-12" x1="20.79" y1="187.49" x2="57.96" y2="187.49" gradientTransform="matrix(1, 0, 0, -1, 0, 336)" xlink:href="#linear-gradient-7"/><linearGradient id="linear-gradient-13" x1="133.39" y1="175.75" x2="112.27" y2="103.95" xlink:href="#linear-gradient-7"/><linearGradient id="linear-gradient-14" x1="121.31" y1="210.71" x2="142.03" y2="210.71" xlink:href="#linear-gradient-2"/><linearGradient id="linear-gradient-15" x1="482.99" y1="-70.05" x2="501.66" y2="-70.05" gradientTransform="matrix(0.95, -0.3, -0.3, -0.95, -405.42, 343.73)" xlink:href="#linear-gradient-3"/><linearGradient id="linear-gradient-16" x1="124.51" y1="150.95" x2="167.12" y2="150.95" xlink:href="#linear-gradient-2"/><linearGradient id="linear-gradient-17" x1="20.38" y1="188.07" x2="39.66" y2="188.07" gradientTransform="matrix(1, 0, 0, -1, 0, 336)" xlink:href="#linear-gradient-7"/><linearGradient id="linear-gradient-18" x1="113.13" y1="209.81" x2="137.93" y2="209.81" xlink:href="#linear-gradient-3"/><linearGradient id="linear-gradient-19" x1="125.62" y1="201.95" x2="127.12" y2="215.94" xlink:href="#linear-gradient-3"/><linearGradient id="linear-gradient-20" x1="121.89" y1="190.2" x2="124.14" y2="211.22" xlink:href="#linear-gradient-3"/><linearGradient id="linear-gradient-21" x1="158.39" y1="53.32" x2="176.57" y2="53.32" xlink:href="#linear-gradient-2"/><linearGradient id="linear-gradient-22" x1="144.18" y1="150.46" x2="162.48" y2="82.14" xlink:href="#linear-gradient-5"/><linearGradient id="linear-gradient-23" x1="166.5" y1="110.53" x2="179.71" y2="110.53" gradientTransform="matrix(1, 0, 0, 1, 0, 0)" xlink:href="#linear-gradient-7"/><linearGradient id="linear-gradient-24" x1="168.18" y1="171.57" x2="220.01" y2="171.57" gradientTransform="matrix(0.99, 0.14, 0.14, -0.99, -18.9, 269.39)" xlink:href="#linear-gradient-7"/><linearGradient id="linear-gradient-25" x1="226.98" y1="139.39" x2="169.83" y2="108.07" gradientTransform="matrix(1, 0, 0, 1, 0, 0)" xlink:href="#linear-gradient-7"/><linearGradient id="linear-gradient-26" x1="118.88" y1="191.98" x2="113.48" y2="174.19" gradientTransform="matrix(0.99, 0.11, -0.11, 0.99, 63.08, -61.86)" xlink:href="#linear-gradient-2"/><linearGradient id="linear-gradient-27" x1="1134.56" y1="-583.55" x2="1146.33" y2="-583.55" gradientTransform="matrix(0.53, 0.85, -0.85, 0.53, -914.91, -520.44)" xlink:href="#linear-gradient-2"/><linearGradient id="linear-gradient-28" x1="196.88" y1="88.32" x2="181.62" y2="100.41" gradientTransform="matrix(1, 0, 0, 1, 0, 0)" xlink:href="#linear-gradient-2"/><linearGradient id="linear-gradient-29" x1="141.92" y1="144.68" x2="145.3" y2="151.44" gradientTransform="matrix(0.99, 0.11, -0.11, 0.99, 63.08, -61.86)" xlink:href="#linear-gradient-2"/><linearGradient id="linear-gradient-30" x1="-13.38" y1="150.89" x2="8.48" y2="150.89" gradientTransform="translate(191.41 -70.44) rotate(0.29)" xlink:href="#linear-gradient-2"/><linearGradient id="linear-gradient-31" x1="147.65" y1="126.38" x2="153.85" y2="118.49" gradientTransform="matrix(0.99, 0.11, -0.11, 0.99, 63.08, -61.86)" xlink:href="#linear-gradient-2"/><linearGradient id="linear-gradient-32" x1="146.47" y1="163.59" x2="168.49" y2="163.59" gradientTransform="matrix(0.99, 0.11, -0.11, 0.99, 63.08, -61.86)" xlink:href="#linear-gradient-7"/><linearGradient id="linear-gradient-33" x1="144.84" y1="177.71" x2="156.39" y2="177.71" gradientTransform="matrix(0.99, 0.11, -0.11, 0.99, 63.08, -61.86)" xlink:href="#linear-gradient-7"/><linearGradient id="linear-gradient-34" x1="121.37" y1="172.93" x2="130.78" y2="172.93" gradientTransform="matrix(0.99, 0.11, -0.11, 0.99, 63.08, -61.86)" xlink:href="#linear-gradient-7"/></defs><title>PM&amp;amp;designer</title><ellipse class="cls-1" cx="132.86" cy="280.28" rx="46.27" ry="80.15" transform="translate(-148.13 411.62) rotate(-89.69)"/><path class="cls-2" d="M77.37,229l1.55,7.47s10.36,3.88,14.49,2.77S95.75,237,95.75,237s-6.24-2.35-7.88-4.41a27.33,27.33,0,0,1-2.63-4Z"/><path class="cls-3" d="M49.85,97.38c.39.59,1.06.94,1.49,1.5a3.68,3.68,0,0,1,0,3.74c-.56,1.18-1.43,2.22-1.9,3.45a7.82,7.82,0,0,1-.67,1.61,1.39,1.39,0,0,1-1.49.64,2,2,0,0,1-.93-1,20.54,20.54,0,0,0-7.53-7.59c-2.74-1.58-10.29-5.8-6.4-9.9,1.53-1.61,4.52-.77,6.56-1.07C50.34,87.11,49.14,96.3,49.85,97.38Z"/><path class="cls-4" d="M45.39,125c-.09,1.59-5.19,2.17-7.09,2.29s-9.55-4.89-8-5.88c4.93-3.14,2.14-9.84,2.14-9.84a26.06,26.06,0,0,1,6.3,1.79c.31.12.59.25.84.36,3,1.31,3.12,2,3.12,2s-1,1.55.1,2.53a8,8,0,0,1,2,3.51A11.57,11.57,0,0,1,45.39,125Z"/><path class="cls-5" d="M44.81,121.7a1.77,1.77,0,0,1-1.64.34,6.37,6.37,0,0,1-3.35-2,4.63,4.63,0,0,1-.79-1.17,5.92,5.92,0,0,1-.35-1.08c-.43-1.62-1.24-3.59.9-4.12,3,1.31,3.12,2,3.12,2s-1,1.55.1,2.53A8,8,0,0,1,44.81,121.7Z"/><path class="cls-6" d="M98.06,239.2c1.08,2.5-6.89,4.17-9.38,3.49s-4.89-2.78-6.68-3.47-3.08-.33-3.59-1.41c-.14-.31-.51-1.22-1-2.48,3.48,1.27,11.93,4.11,14.45,3,1.56-.72,2.24-1.49,2.37-2.25C96.18,237.31,97.69,238.38,98.06,239.2Z"/><polygon class="cls-7" points="86.61 156.84 69.74 169.44 59.51 169.98 67.37 163.9 70.99 161.1 76.5 156.84 86.61 156.84"/><path class="cls-8" d="M73.7,159,71,161.1l-3.63,2.76-.09.07-.15-.34-.69-1.48S62.2,158.3,59,155.54c-1-.87-1.93-1.64-2.59-2.15-2.72-2.12,1.2-10.62,4-7.08,4.1,5.26,8.34,11.93,9.3,12.42S73.7,159,73.7,159Z"/><path class="cls-9" d="M77.11,163.93s.5,1.15-.26,1.58l-.77.43a1,1,0,0,1-.52.87.71.71,0,0,1-.87,0s-.06.73-.61.78a1.34,1.34,0,0,1-.85-.17s.2,1.22-.68,1.14a2.87,2.87,0,0,1-1.85-1,5.71,5.71,0,0,1,2.68-3.28c1.67-.78,2.15-1.34,2.61-1.18A4.79,4.79,0,0,1,77.11,163.93Z"/><path class="cls-10" d="M71,161.1l-3.62,2.8h0a1.55,1.55,0,0,1-.24-.27l-.69-1.48s-6.41-5.66-9.64-8.42a7.08,7.08,0,0,1,2.41-1.2c1.08,0,10.32,8.1,11.79,8.61C71,161.1,71,161.11,71,161.1Z"/><path class="cls-11" d="M62.2,147.87a4.64,4.64,0,0,1-.17.64,6.9,6.9,0,0,1-2.85,4,18,18,0,0,1-2.41,1.2,2.11,2.11,0,0,1-.59.18s-1.52-1.2-2.84-2.44a9.27,9.27,0,0,1-1.8-2c-.4-.81-.24-4.69-.07-7.7,0-.42.06-.81.08-1.18.1-1.49.19-2.55.19-2.55l2.13-6.45s.48,1.2,1.18,2.85c.32.79.7,1.68,1.1,2.6l.81,1.87a47.13,47.13,0,0,0,2.26,4.63C60.58,145.59,62.2,147.87,62.2,147.87Z"/><path class="cls-12" d="M85.44,228.79a11.55,11.55,0,0,1-1.62.68c-1.75.61-4.56,1.16-6.55-.53l-7-27.48c-.5-1.65-2.71-4.76-4.34-5.32l-24.87-7L42.52,153l11.66,2.71s1.88,8.07,3.38,16.22h0c.49,2.66,22.7,6.24,24.11,24.06C82.1,201.63,85.44,228.79,85.44,228.79Z"/><path class="cls-13" d="M80.34,253.81a2.63,2.63,0,0,1-1,.57l-1.64.52a4,4,0,0,1-5-2.6l-.06-.19c-2.46-9.26-8.48-31.35-10.4-33.49h0c-2.44-2.72-12.92-9-18.31-14.79a57.76,57.76,0,0,1-8.85-13.29l-4.64-12.67s-.28-1.31-.52-2.66a10.84,10.84,0,0,1-.34-3c.25-.21,9.33-7.27,9.33-7.27L44,166.83s3.39,5.36,7.78,12.25C59.35,191,69.89,207.52,71,208.89a51.84,51.84,0,0,1,5.84,10.4c.5,1.66,2.4,24.34,4.28,31.93A2.62,2.62,0,0,1,80.34,253.81Z"/><path class="cls-14" d="M58,170.51h0a5.22,5.22,0,0,1-.45,1.33,13.77,13.77,0,0,1-.8,1.58c-1.24,2.08-3.33,4.54-6,5.2a1.63,1.63,0,0,1-.3.07,5.28,5.28,0,0,1-.89.11,8.89,8.89,0,0,1-5.35-1.89c-.35-.24-.69-.49-1-.75-.83-.63-1.64-1.31-2.4-1.94a10.76,10.76,0,0,0-3.46-2.13c-2.08-.57-4.79,1.08-6.56,2.43l-.13.09c-.58.44-1,.85-1.35,1.12l-.35.33A37.83,37.83,0,0,1,30,170c.9-3.54,2.06-6.63,2.53-8.22.74-2.46-.49-7.71-1.34-10.84a3.5,3.5,0,0,0-1.46-2.17c-.09-.07-.19-.12-.28-.18s-.45-.26-.7-.38a12.89,12.89,0,0,1-4-3.07,14.32,14.32,0,0,1-2.31-3.77,19.64,19.64,0,0,1-1.51-5.63,10.93,10.93,0,0,1,.05-3.28,5,5,0,0,1,.31-1h0v-.08c1.14-2.32,6.77-7.83,8.5-9.49l.51-.49.36.17c.26.12.64.3,1.11.54h0c.58.31,1.29.71,2.05,1.21,2,1.26,4.45,3.82,9.37,1.43,1.92-.93.92-3.81.17-5.42l-.06-.12-.12-.22-.19-.38-.08-.14-.08-.15-.06-.1h.87c1.5,0,4.5.29,5.6,1.79,1.48,2,4.67,10,5.88,12.49a9,9,0,0,1,1,4.48,11.34,11.34,0,0,1-.93,3.67h0a34.14,34.14,0,0,0-1.78,4.7.09.09,0,0,1,0,.07,12.37,12.37,0,0,0-.33,3.74,16.31,16.31,0,0,0,.25,2.29c.19,1.33.47,2.75.8,4.22.12.53.24,1.06.38,1.6l.18.76C56.17,163.84,58.05,169.52,58,170.51Z"/><path class="cls-15" d="M30.3,121.36l-.51.49c-1.73,1.66-7.36,7.17-8.5,9.49v.08h0a5,5,0,0,0-.31,1C20.92,131.69,21.78,129.14,30.3,121.36Z"/><path class="cls-15" d="M31.8,122.09l-5.57,6.53L21,132.69s-.07-.06-.08-.27a5,5,0,0,1,.31-1h0v-.08c1.14-2.32,6.77-7.83,8.5-9.49l.51-.49.36.17,1.11.54Z"/><path class="cls-15" d="M53.41,145.4a12.37,12.37,0,0,0-.33,3.74c.05.71.14,1.48.26,2.29.19,1.33.47,2.75.79,4.21.13.54.25,1.07.39,1.6a3.45,3.45,0,0,0,.18.77c1.46,5.83,3.35,11.51,3.27,12.5,0-.71-9.2-6.85-5.38-29,0-.3-.69,0-1.12.2a17.55,17.55,0,0,0-3.85,2.53s1.81-2.84,3.93-3.71a.64.64,0,0,1,.19-.08c2.15-.76,3.25-3.67,3.31-6.07v-.24c0-2.44-5-12.15-6.31-13.37s-5.37-1.43-5.37-1.43l0-.12L43.2,119l-.19-.38-.08-.15-.08-.14-.06-.11h.87c1.5,0,4.5.29,5.6,1.79,1.48,2,4.67,10,5.88,12.49a9.05,9.05,0,0,1,1,4.48,11.36,11.36,0,0,1-.94,3.66h0a36.1,36.1,0,0,0-1.77,4.71Z"/><path class="cls-16" d="M43.11,176.18c-2.17-1.66-4.08-3.57-5.87-4.07-3.36-.93-8.38,4-8.38,4,.51-5.74,2.92-11.87,3.65-14.33S32,154,31.17,150.89a3.52,3.52,0,0,0-1.46-2.17l-.28-.17c.1-2.23.19-4.46.25-6.7a17.88,17.88,0,0,1,.95-6.45c2.24,1.6,4.65,3.41,5.39,6.07.4,1.48.23,3.07.56,4.57.72,3.32,3.7,5.81,4.33,9.15.55,2.95-.85,5.89-1.21,8.87-.54,4.59,1.83,7.12,3.23,11.09A3,3,0,0,1,43.11,176.18Z"/><path class="cls-17" d="M45.93,97.44c.71,1.82.29,4.47.51,5.3a12.13,12.13,0,0,1,.87,3c.09,1.35.63,8.51-.74,9.53s-9.39.26-11.07-.9a17.22,17.22,0,0,1-3.06-2.85,3.47,3.47,0,0,1-2.95-1.08A16.72,16.72,0,0,1,26.6,97.16c1.46-6.36,11.48-7.26,15.18-5S45.93,97.44,45.93,97.44Z"/><path class="cls-18" d="M95.39,264.34c1.11,2.48-6.83,4.26-9.32,3.62s-4.93-2.71-6.74-3.37-3.08-.29-3.61-1.36c-.14-.32-.53-1.22-1-2.47,3.51,1.22,12,3.94,14.5,2.77,1.55-.74,2.22-1.52,2.34-2.28C93.49,262.47,95,263.53,95.39,264.34Z"/><path class="cls-19" d="M73.18,160.89a14.51,14.51,0,0,1-4.11,1.6H69a21.34,21.34,0,0,1-4.19.78c-1.43.06-22.33,6.89-23.94,7.08-3.46.43-6-2.17-7.2-3.66L33.44,163l5.33.32s22.54-4,23.36-4.38,1.26-2,2.28-2.84,5.38-2.38,5.87-1.66-2.12,1.81-1.73,2.37,3-.2,4.18-.74,2.29-1.74,2.79-1.1S75,159.62,73.18,160.89Z"/><path class="cls-20" d="M39.66,163a6,6,0,0,1-.38.64,9.11,9.11,0,0,1-5.74,3.81h0c-.29-.42-5.11-7.09-5.85-8.9s-13.2-23.15-3.76-29.72l.22-.13a1.86,1.86,0,0,1,.69-.26h.09C28,128,31.18,134.35,32,139c.36,2,.88,4.53,1.4,7,.86,4.15,1.74,8.08,1.92,8.52C35.64,155.26,39.66,163,39.66,163Z"/><path class="cls-21" d="M42.39,93.59c-.11,1.7-1.93,2.73-3.56,3.23-.18.07-.38.13-.58.19-1.47.46-3,1-3.74,2.31a6.36,6.36,0,0,0-.5,1.75c-.06.27-.12.55-.18.81a6,6,0,0,1-.26.71,21.9,21.9,0,0,1-1.65,2.3,2.58,2.58,0,0,0-.41,1.81h0a.24.24,0,0,0-.11-.06,1.32,1.32,0,0,0-1.39.1,2.22,2.22,0,0,0-.43,2.45,3.89,3.89,0,0,0,2.29,2.32,4.42,4.42,0,0,0,.48.15,6.15,6.15,0,0,1,.75,1.52,7.12,7.12,0,0,1-1.63,7,6.32,6.32,0,0,1-1.38,1.09h0a7.79,7.79,0,0,1-2.63,1,8.55,8.55,0,0,1-3.49,0,9.82,9.82,0,0,1-1.06-.3c-1.66-.61-3.31-2.13-3-3.86.26-1.33,1.6-2.21,2-3.5.67-2-1-3.9-2.08-5.68-1.73-2.73-2.33-6.45-.57-9.17.77-1.16,1.93-2.11,2.37-3.43A21.62,21.62,0,0,0,22,93.12a6.5,6.5,0,0,1,4.1-4.82,9.52,9.52,0,0,1,6.49.06,20.17,20.17,0,0,0,2.66.87C37.73,89.67,42.63,89.69,42.39,93.59Z"/><path class="cls-22" d="M38.26,97h0c-1.47.46-3,1-3.74,2.31a6.36,6.36,0,0,0-.5,1.75l-.18.81-8.38,9.21s-.56-6.65.52-9.72,4.64-4.44,7.39-4.06A11.87,11.87,0,0,0,38.26,97Z"/><path class="cls-23" d="M31.39,106.64a1.32,1.32,0,0,0-1.39.1,2.22,2.22,0,0,0-.43,2.45,3.89,3.89,0,0,0,2.29,2.32,19.27,19.27,0,0,0,1.2,1.65h0a7.12,7.12,0,0,1-1.63,7,6.32,6.32,0,0,1-1.38,1.09h0l-2.51,1h-.12a8.55,8.55,0,0,1-3.49,0,1.46,1.46,0,0,1-.39-.53,2.35,2.35,0,0,1,.52-2.32,15.34,15.34,0,0,0,1.59-2,5.15,5.15,0,0,0,.37-3.19c-.17-1.08-.49-2.13-.58-3.22a7.88,7.88,0,0,1,2.94-6.76,20.12,20.12,0,0,1,2.93-1.73,16.26,16.26,0,0,0,1.5-.92c.34-.24.77-.81,1.16-.83V101a16.91,16.91,0,0,1-.75,5.24,2.92,2.92,0,0,0-.15.93,2.26,2.26,0,0,0,.19.72c.25.77.52,1.54.79,2.3l-2.16-3A6.14,6.14,0,0,0,31.39,106.64Z"/><path class="cls-24" d="M73.17,253.3l1.54,7.46s10.36,3.88,14.5,2.77,2.34-2.28,2.34-2.28-6.24-2.36-7.88-4.41a26.6,26.6,0,0,1-2.64-4Z"/><path class="cls-25" d="M73.18,160.89l-4.11,1.6H69a21.34,21.34,0,0,1-4.19.78c-1.43.06-22.33,6.89-23.94,7.08-3.46.43-6-2.17-7.2-3.66l2.69-.33s3.48,2.58,7.26,1.46,22.05-6.7,23.25-7A47.46,47.46,0,0,1,73.18,160.89Z"/><path class="cls-26" d="M36.76,146.7s2.06,1.91,6.15.35,4.75-2.12,4.75-2.12-6.37,9.89-9.84,4.11C36.45,146.76,36.76,146.7,36.76,146.7Z"/><path class="cls-15" d="M80.34,253.81s-4.12-23.68-4.91-30.21-3.36-9.75-3.36-9.75l-22.58-35,1.87-.39c7.58,11.92,18.53,29.09,19.65,30.46a51.84,51.84,0,0,1,5.84,10.4c.5,1.66,2.4,24.34,4.28,31.93A2.65,2.65,0,0,1,80.34,253.81Z"/><path class="cls-15" d="M85.44,228.79a11.55,11.55,0,0,1-1.62.68c-.3-2.64-2-17.8-2.78-26-.85-9-1.82-13.15-6.35-19.06s-19.35-9-19.35-9l2.19-3.53c.49,2.66,22.7,6.24,24.11,24.06C82.1,201.63,85.44,228.79,85.44,228.79Z"/><path class="cls-12" d="M62.21,218.62c-2.44-2.72-12.92-9-18.31-14.79a57.76,57.76,0,0,1-8.85-13.29l-4.64-12.67s-.28-1.31-.52-2.66a16.35,16.35,0,0,1,5.84-3.16s-1.23,7.09,2,12.07,7.33,4.31,9.06,9.22.73,9.2,6.91,15.29C59.71,214.54,62.08,218.38,62.21,218.62Z"/><path class="cls-15" d="M39.66,163a6,6,0,0,1-.38.64s-3.68-6.53-5-9-4.13-16.53-4.13-16.53l-1.3-4.51c-1.29-4.5-5-4.82-5-4.82l.22-.13a2.88,2.88,0,0,1,.69-.26h.09c3.1-.39,6.28,6,7.1,10.61.36,2,.88,4.53,1.4,7,.86,4.15,1.74,8.08,1.92,8.52C35.64,155.26,39.66,163,39.66,163Z"/><path class="cls-27" d="M179.12,112.29l-1.75,7.32c0,.19-.09.37-.15.56a9.41,9.41,0,0,1-1,2.18l-3.13,4.72-6.53-6.61s.08-.38.24-1.06C170,107.2,172.38,101,174,97.81s3.3-3.81,3.63-3.81h.06a1.32,1.32,0,0,1,1,.77s0,0,0,0C180.75,98.37,179.12,112.29,179.12,112.29Z"/><path class="cls-12" d="M196.15,167.78c-5.73,2.42-28.72,8.75-28.72,8.75s-1.06,2.59-.22,7.23-1.91,12.45-3.53,20a26.74,26.74,0,0,0-.52,7.36c.23,3.27,1,5.3.48,5.7a40.24,40.24,0,0,1-7.24,4c-1.61.44-1.45.79-5,2.88s-8.69.89-9.71-1.35,10.56-8.54,11.19-10.17h0s0,0,0-.05c.58-2.49.49-41.44,3.08-44.06,1.77-1.79,18-12.35,28.23-19l8.43-5.43s5.93,1.58,7.66,7S201.87,165.36,196.15,167.78Z"/><path class="cls-13" d="M212.84,170c-3.6,5.37-23.27,18.42-23.27,18.42s-.34,2.73,2.31,6.9,3.21,12.86,4.71,20.83a28.27,28.27,0,0,0,2.53,7.38c1.56,3,3.1,4.76,2.78,5.34a42.43,42.43,0,0,1-5.4,6.84c-1.37,1.09-1.1,1.35-3.67,4.82a9.33,9.33,0,0,1-8,3.49h0l-.12,0a4.27,4.27,0,0,1-.71-.15,2.8,2.8,0,0,1-1.18-.65c-1.9-1.76,6.78-12.6,6.72-14.44a.2.2,0,0,0,0-.07c-.45-2.65-16.41-40.44-15-44.05.84-2,9-14.25,15.91-24.4,5.25-7.76,9.75-14.29,9.75-14.29s6.47-.88,10.31,3.69S218.63,161.29,212.84,170Z"/><path class="cls-12" d="M189.53,228.67a.31.31,0,0,0,0-.08,5.26,5.26,0,0,1,2.89-.12,4,4,0,0,0,2.29.65c1.17-.08,2.89-2.12,3.29-2.9a11.64,11.64,0,0,1,1.09-2.78c1.57,3,3.1,4.77,2.8,5.35a43.43,43.43,0,0,1-5.41,6.83c-1.36,1.12-1.05,1.37-3.66,4.84s-8.09,4.44-10,2.65S189.65,230.47,189.53,228.67Z"/><path class="cls-28" d="M214.63,114.19c.3-7.53.07-11.61-3.35-14.54h0c-.24-.21-.49-.41-.76-.61h0l-.05,0a92.5,92.5,0,0,0-11.73-5.06c-.27-.08-.52-.16-.77-.22s-.66-.17-1-.23c-1.48-.33-3-.59-4.45-1a21,21,0,0,0-5.35-.88c-1.1-.14-5.16,2-8,2.93a4.73,4.73,0,0,0-1.65,1.16,10.28,10.28,0,0,0-2.75,4.57c.1,1.12.23,2.42.39,3.87l.12,1.11c.16,1.43.34,3,.54,4.62l0,.31c.38,3.09.82,6.48,1.31,10,.24,1.74.48,3.45.67,5.09,1.25,10.17,2.72,26.06,2.72,26.06.37.34,5,3.26,9.3,5.9A22.2,22.2,0,0,0,210,159.1l.13,0a28.74,28.74,0,0,0,9.68-6.49S214.24,124.13,214.63,114.19ZM187.84,125h0c.18,1.55.34,3.18.51,4.87C188.16,128.44,188,126.78,187.84,125Z"/><path class="cls-15" d="M180.58,151.36l-4.7-41.16,0-.31-.54-4.62-.12-1.11c-.16-1.45-.29-2.75-.39-3.87a10.28,10.28,0,0,1,2.75-4.57l.32,2.41a19.65,19.65,0,0,0-.46,7l5.18,47.56S180.62,151.74,180.58,151.36Z"/><path class="cls-29" d="M181.17,143.81a1.27,1.27,0,0,1,.14,2.2L158,161.85,132.6,149l25.12-17Z"/><path class="cls-30" d="M179.65,143.06c1.49.75.6,1.7-.77,2.61L157,159.74l-23.69-10.5,25.12-17.05Z"/><polygon class="cls-29" points="161.21 137.5 169.26 142.15 163.27 146.6 155.89 141.71 161.21 137.5"/><polygon class="cls-29" points="150.25 139.37 151.26 139.95 168.07 150.62 156.48 157.68 141.36 145.41 150.25 139.37"/><path class="cls-29" d="M145.07,153.66l-30.92-15.82c-.48-.23-1.65.06-1.78.57h0a1.16,1.16,0,0,0,.37,1.2l19.78,17.92a5.44,5.44,0,0,0,2.93,1.33l22.47,3Z"/><path class="cls-30" d="M113.7,138.13a.37.37,0,0,1,.45-.27l24.62,6.83,18.22,15-20.43-2.46a6.72,6.72,0,0,1-3.38-1.62l-19.37-17.15A.37.37,0,0,1,113.7,138.13Z"/><path class="cls-31" d="M116.13,138.85a.25.25,0,0,1,.34-.07l21,6,16.74,13.58-17.88-2.52a4.05,4.05,0,0,1-2.06-1L116.2,139.19A.25.25,0,0,1,116.13,138.85Z"/><path class="cls-32" d="M219.76,152.56c-6.78,6.62-12.62,7.11-12.62,7.11a3.6,3.6,0,0,1-1.66-.84c-2.62-2,3.92-11.41,4.56-13,5.85-14.84-4.44-14.53-4.19-25.16a43.9,43.9,0,0,0-.42-8.87,20.57,20.57,0,0,0-1.51-4.87,18.46,18.46,0,0,0-1.15-2.16c-4.49-7.17-13.28-9.92-22.36-10.11-.41,0-1.67.15-1.68.14a1.55,1.55,0,0,0-1.19-.76c2.73-1.05,9.62-3.22,14.94-1.49,1.45.38,3,.65,4.47,1,.59.13,1.17.27,1.73.43A92.5,92.5,0,0,1,210.41,99l.05,0c.29.2.57.42.82.63,3.45,2.94,3.66,7,3.33,14.55C214.17,124.11,219.76,152.56,219.76,152.56Z"/><path class="cls-33" d="M158.18,136.17a9.42,9.42,0,0,1-.79,3c-.7,1.48-3.23,4.21-4.18,4.07s1.21-2.92.65-3.33-4,1.35-4.68,1.77-.88,2.29-1.72,2.29-1.4-1.12-.55-4.12,1.52-4.46,2.82-5.66,6.7-3,6.7-3,4.36-4.9,8.32-8.87l0,.11a14.28,14.28,0,0,0,6.23,5.93h0Z"/><path class="cls-34" d="M159.62,135.4l-3.29-4.6-1.32.82c.61.83,3.19,4.69,3.19,4.69Z"/><path class="cls-34" d="M156.44,133.78a1.54,1.54,0,1,0-1.55-1.53,1.54,1.54,0,0,0,1.55,1.53Z"/><path class="cls-35" d="M156.33,133.35a1.23,1.23,0,0,0,1.2-1.27,1.21,1.21,0,0,0-1.23-1.18.43.43,0,0,0-.16,0,1.23,1.23,0,0,0,.16,2.45Z"/><path class="cls-36" d="M195.28,136.48s-17.18,6.13-18.27,6.64-1.45,2.17-2.6,3.59-3.8,2.23-4.47,1.88,1.47-2.32,1.4-2.75-1.88.08-3.11.57-4,2.71-4.63,1.73,2.18-6,3.83-7.33,6-1.94,7.6-2.48c1.38-.45,14.67-8.18,18.65-10.5l3.47,8.27C196,136.35,195.28,136.48,195.28,136.48Z"/><path class="cls-37" d="M197,94.21a3.47,3.47,0,0,1-.42,1.11c-1.08,2-4,5-7.39,4.79l-.64-.09c-4.35-.86-4.72-3.6-5.08-7.51-.14-1.5,1.65-2.76,3.89-3.73a44.06,44.06,0,0,1,8.35-2.41c-.35,1.61,1.06,5.21,1.27,7.13A2.9,2.9,0,0,1,197,94.21Z"/><path class="cls-38" d="M189.16,100.1l-.64-.09c-4.35-.85-4.72-3.59-5.08-7.5-.14-1.5,1.65-2.77,3.89-3.73a4.21,4.21,0,0,1,1.92,2.4,11.22,11.22,0,0,1,.29,4.2c-.13,1.21-.14,2.45-.2,3.68A3.66,3.66,0,0,1,189.16,100.1Z"/><path class="cls-39" d="M186.69,67.08a8.38,8.38,0,0,1,3.89-.66c.9.2,1.35,1,2.17,1.2,1.09.27,2.33,0,3.31.69a5.05,5.05,0,0,1,1.61,2,11.83,11.83,0,0,1,1.44,5.88C199,79,197,84,197,84a56.43,56.43,0,0,1-3.5,5.77c-1.08,1.32-3.67,4.51-8.36,4.66s-7.18-7.92-7.36-9.56.28-2.48.17-3.23c-.16-1.15-.61-2.21-.67-3.36a7.53,7.53,0,0,1,.58-3.31,2,2,0,0,0,.17-.4A15,15,0,0,1,186.69,67.08Z"/><path class="cls-13" d="M198.55,81.46c-.66,1.71-1.54,5.34-2.87,4.94,0,0-1.21-3.85.35-4.29s1.35-5.76-.26-4.68a2.19,2.19,0,0,0-.67.75.88.88,0,0,0-.12.21c-.4.85-.46,1.85-.81,2.81-1-2.49-2.8-6.83-6.53-4.69,0,0-.32-.6-.21-.68l-2.14,1.61a3.93,3.93,0,0,1-2.57,1.1c-.95-.07-1.78-1.28-1.16-2l-2.43,0-.27,0h0a2,2,0,0,1-1.79-2.19,2.82,2.82,0,0,1-1.29-.16,2.72,2.72,0,0,1-1.55-3.51,15.52,15.52,0,0,1,1.2-2.62c1.84-3,5.56-4.33,9.06-5a10.69,10.69,0,0,1,4.14-.15,4.39,4.39,0,0,1,3.22,2.41,5.7,5.7,0,0,1,5.24,1.28A10.19,10.19,0,0,1,200,71.35a9.19,9.19,0,0,1,.42,1.72C200.9,76,199.81,78.22,198.55,81.46Z"/><path class="cls-40" d="M195,79.7c-.08.19-.25.68.17.44a.37.37,0,0,1,.22-.08,2.16,2.16,0,0,0-.35,1.21.75.75,0,0,0,.06.33.3.3,0,0,0,.25.2.47.47,0,0,0,.37-.17,2.2,2.2,0,0,0,.3-.31,1.57,1.57,0,0,0,.16-.67l.1-1.23a.93.93,0,0,0,.05-.29.84.84,0,0,0-.12-.31.43.43,0,0,0-.18-.15.51.51,0,0,0-.45.22A5.19,5.19,0,0,0,195,79.7Z"/><path class="cls-12" d="M179.55,74.8a3.89,3.89,0,0,1-1.35.71c-.39.19-.71.11-.23.65s1.12.36,1.58.36h1.33a.85.85,0,0,0,.65-.19.91.91,0,0,0,.14-.58,8.46,8.46,0,0,1,1-2.24.39.39,0,0,0-.47-.6,3.3,3.3,0,0,0-1.73.83C180.15,74.07,179.88,74.48,179.55,74.8Z"/><path class="cls-12" d="M177.76,73.17c-.32.35-.63,1.12-1,1.32-1.08.5-2.49-.92-2.77-1.82a1,1,0,0,1,0-.63.5.5,0,0,1,.46-.38,1.67,1.67,0,0,1,.39,0,1.57,1.57,0,0,0,1.14-.18,8.63,8.63,0,0,0,1.52-.89,3.48,3.48,0,0,1,1-.61,1,1,0,0,1,1.06.3,1.14,1.14,0,0,1-.17,1.21A16.78,16.78,0,0,1,177.76,73.17Z"/><path class="cls-12" d="M198.56,81.38c-.66,1.71-1.54,5.34-2.87,4.94,0,0-1.21-3.85.35-4.29s1.35-5.76-.26-4.68a2.19,2.19,0,0,0-.67.75,4.64,4.64,0,0,1,.45-.7,3.44,3.44,0,0,1,1.52-1.28,5.07,5.07,0,0,0,.94-.36,3,3,0,0,0,1-1.47A2,2,0,0,1,200.18,73a.69.69,0,0,1,.25,0C200.9,76,199.81,78.22,198.56,81.38Z"/><path class="cls-41" d="M212.06,112.2c-2.72,5.63-11.3,21.8-11.3,21.8s-4.67,4.34-5.79,3.45-5.55-10.74-5.55-10.74l2.17-2.15s.59-.64,5.53-10.09,8-14.62,10.42-15.33,6.36.83,6.31,3.24C213.85,102.38,214.79,106.56,212.06,112.2Z"/><path class="cls-42" d="M187.69,127.56s5.74,10.66,6.72,10.76,3.88-1.6,3.88-1.6l-6.7-12.16Z"/><path class="cls-43" d="M173.44,126.41a9.32,9.32,0,0,1-1,1.55,1.38,1.38,0,0,1-1.56.41h0a14.28,14.28,0,0,1-6.23-5.93l0-.12c.18-1.64,2.08-2.86,2.08-2.86a2.78,2.78,0,0,0,.33.51,16.19,16.19,0,0,0,1.29,1.56,65.51,65.51,0,0,0,5.35,4.49A1,1,0,0,1,173.44,126.41Z"/><path class="cls-15" d="M157.7,169.58c-1.53,2.61-3.45,42.75-3.45,42.75l-1.36-.23h0l0,0c.58-2.49.48-41.44,3.07-44.06,1.78-1.79,14.33-10,24.59-16.63l2,1.33S159.23,167,157.7,169.58Z"/><path class="cls-44" d="M194,251.6l-.12,0h-.09l.21,0Z"/><path class="cls-15" d="M176.68,184.71c.06,2,15.76,43.75,15.76,43.75s-6.47,11-7,11.92-1.32,3.14-.79,3.51l-.63-.14a2.69,2.69,0,0,1-1.18-.65c-1.9-1.76,6.78-12.6,6.72-14.44a.64.64,0,0,0,0-.07c-.46-2.65-16.42-40.43-15-44,.84-2,10.29-16.08,17.19-26.23l2.21,1S176.63,182.69,176.68,184.71Z"/><path class="cls-15" d="M211.56,99.58l-.28.07h0a12.12,12.12,0,0,0-3.12,1.22c-.36.33-2.26,3.11-4.23,6s-4.14,6.22-4.68,7c-1.07,1.58-6.54,12.68-6.54,12.68l-1-1.87c.25-.16,1.08-1.42,3.84-7.2a121.89,121.89,0,0,1,7.25-12.79q1.44-2.22,3-4.38c-.22-2.72-9.19-5-9.19-5a3.47,3.47,0,0,0,.42-1.11,2.9,2.9,0,0,0,0-.71v0c.3.06.62.14,1,.23s.5.14.77.22A92.5,92.5,0,0,1,210.41,99l.05,0h0Z"/><path class="cls-15" d="M191.59,124.57l.09.16C191.54,124.83,191.59,124.57,191.59,124.57Z"/><path class="cls-29" d="M126.29,194.94,125,203.85c-.79,5.6-4.57,7.69-8.43,4.68l-9.39-7.39c-3.87-3-6.35-10-5.56-15.62l1.25-8.91c.79-5.6,4.56-7.7,8.43-4.68l9.39,7.39C124.59,182.33,127.09,189.32,126.29,194.94Z"/><path class="cls-31" d="M123.79,196.22l-1.26,8.91c-.79,5.61-4.56,7.7-8.42,4.68l-9.39-7.38c-3.87-3-6.36-10-5.57-15.62l1.26-8.91c.79-5.61,4.56-7.7,8.42-4.68l9.4,7.38C122.09,183.62,124.58,190.61,123.79,196.22Z"/><path class="cls-29" d="M247.17,151l10.46-5.77c4.3-2.36,7.68.32,7.55,6l-.2,9c-.12,5.65-3.7,12.15-8,14.5l-10.46,5.77c-4.3,2.36-7.68-.31-7.56-6l.2-9C239.29,159.88,242.87,153.38,247.17,151Z"/><path class="cls-31" d="M249,152.84l10.47-5.77c4.29-2.36,7.67.31,7.55,6l-.2,9c-.12,5.66-3.71,12.16-8,14.52l-10.47,5.77c-4.29,2.36-7.67-.32-7.55-6l.2-9C241.13,161.68,244.74,155.19,249,152.84Z"/><path class="cls-29" d="M125.46,86.85l-1.25,8.91c-.79,5.61,2.26,8.66,6.8,6.83l11.07-4.5c4.55-1.83,8.87-7.86,9.66-13.46L153,75.72c.79-5.61-2.25-8.66-6.81-6.83l-11.06,4.5C130.61,75.25,126.28,81.28,125.46,86.85Z"/><path class="cls-31" d="M127.72,88.77l-1.26,8.92c-.79,5.6,2.26,8.66,6.8,6.82l11.07-4.5c4.55-1.83,8.88-7.85,9.67-13.46l1.25-8.91C156,72,153,69,148.45,70.81l-11.07,4.5C132.85,77.11,128.51,83.18,127.72,88.77Z"/></svg>