<svg id="Layer_1" data-name="Layer 1" xmlns="http://www.w3.org/2000/svg" xmlns:xlink="http://www.w3.org/1999/xlink" viewBox="0 0 284 335"><defs><style>.cls-1{opacity:0.2;fill:url(#linear-gradient);}.cls-2{fill:#071b3d;}.cls-3{fill:url(#linear-gradient-2);}.cls-4{fill:url(#linear-gradient-3);}.cls-5{fill:#151f5b;}.cls-6{fill:url(#linear-gradient-4);}.cls-7{fill:#fff;opacity:0.34;}.cls-17,.cls-18,.cls-20,.cls-7{isolation:isolate;}.cls-8{fill:#222a72;}.cls-9{fill:url(#linear-gradient-5);}.cls-10{fill:url(#linear-gradient-6);}.cls-11{fill:url(#linear-gradient-7);}.cls-12{fill:url(#linear-gradient-8);}.cls-13{fill:url(#linear-gradient-9);}.cls-14{fill:#161e51;}.cls-15{fill:none;}.cls-16{fill:url(#linear-gradient-10);}.cls-17,.cls-18,.cls-20{opacity:0.64;}.cls-17{fill:url(#linear-gradient-11);}.cls-18{fill:url(#linear-gradient-12);}.cls-19{fill:#33bdd0;}.cls-21{fill:url(#linear-gradient-13);}.cls-22{fill:url(#linear-gradient-14);}.cls-23{fill:url(#linear-gradient-15);}.cls-24{fill:url(#linear-gradient-16);}.cls-25{fill:url(#linear-gradient-17);}.cls-26{fill:url(#linear-gradient-18);}.cls-27{fill:url(#linear-gradient-19);}.cls-28{fill:url(#linear-gradient-20);}.cls-29{fill:url(#linear-gradient-21);}.cls-30{fill:url(#linear-gradient-22);}.cls-31{fill:url(#linear-gradient-23);}.cls-32{fill:url(#linear-gradient-24);}</style><linearGradient id="linear-gradient" x1="-1658.02" y1="37.95" x2="-1545.96" y2="-44.32" gradientTransform="matrix(-0.5, 0.87, -0.58, -1, -638.58, 1657.44)" gradientUnits="userSpaceOnUse"><stop offset="0" stop-color="#34c2eb"/><stop offset="1" stop-color="#1a7fc3"/></linearGradient><linearGradient id="linear-gradient-2" x1="112.86" y1="91.43" x2="107.79" y2="107.9" gradientUnits="userSpaceOnUse"><stop offset="0.42" stop-color="#f1d6d3"/><stop offset="0.65" stop-color="#eec6d9"/><stop offset="1" stop-color="#f4eccb"/></linearGradient><linearGradient id="linear-gradient-3" x1="107.03" y1="94.11" x2="129.18" y2="165.44" gradientUnits="userSpaceOnUse"><stop offset="0" stop-color="#eec6d9"/><stop offset="0.42" stop-color="#785757"/><stop offset="1" stop-color="#f4eccb"/></linearGradient><linearGradient id="linear-gradient-4" x1="2316.83" y1="1652.68" x2="2357.35" y2="1652.68" gradientTransform="translate(-730.24 2795.07) rotate(-107.62)" gradientUnits="userSpaceOnUse"><stop offset="0" stop-color="#eec6d9"/><stop offset="0.42" stop-color="#f1d6d3"/><stop offset="1" stop-color="#f4eccb"/></linearGradient><linearGradient id="linear-gradient-5" x1="115.08" y1="154.88" x2="117.09" y2="154.88" gradientUnits="userSpaceOnUse"><stop offset="0" stop-color="#183866"/><stop offset="1" stop-color="#1a7fc3"/></linearGradient><linearGradient id="linear-gradient-6" x1="136.85" y1="80.76" x2="81.22" y2="170.07" gradientUnits="userSpaceOnUse"><stop offset="0" stop-color="#c3caf4"/><stop offset="1" stop-color="#1a7fc3"/></linearGradient><linearGradient id="linear-gradient-7" x1="122.76" y1="126.41" x2="99.88" y2="145.88" xlink:href="#linear-gradient-6"/><linearGradient id="linear-gradient-8" x1="101.83" y1="105.27" x2="115.22" y2="105.27" xlink:href="#linear-gradient-6"/><linearGradient id="linear-gradient-9" x1="98.49" y1="88.65" x2="121.01" y2="88.65" gradientTransform="matrix(1, 0, 0, 1, 0, 0)" xlink:href="#linear-gradient-4"/><linearGradient id="linear-gradient-10" x1="82.57" y1="74.54" x2="53.72" y2="78.47" gradientTransform="matrix(1, 0, 0, 1, 0, 0)" xlink:href="#linear-gradient-4"/><linearGradient id="linear-gradient-11" x1="140.09" y1="184.21" x2="183.44" y2="184.21" gradientUnits="userSpaceOnUse"><stop offset="0" stop-color="#69e3ff"/><stop offset="1" stop-color="#69bbed"/></linearGradient><linearGradient id="linear-gradient-12" x1="183.44" y1="184.22" x2="226.79" y2="184.22" xlink:href="#linear-gradient-11"/><linearGradient id="linear-gradient-13" x1="174.77" y1="142.73" x2="151.06" y2="175.71" xlink:href="#linear-gradient-11"/><linearGradient id="linear-gradient-14" x1="204.58" y1="136.38" x2="208.13" y2="198.79" xlink:href="#linear-gradient-11"/><linearGradient id="linear-gradient-15" x1="138.26" y1="143.1" x2="228.65" y2="143.1" xlink:href="#linear-gradient-11"/><linearGradient id="linear-gradient-16" x1="191.51" y1="129.19" x2="180.6" y2="147.73" xlink:href="#linear-gradient-11"/><linearGradient id="linear-gradient-17" x1="203.21" y1="153.56" x2="207.21" y2="166.83" xlink:href="#linear-gradient-11"/><linearGradient id="linear-gradient-18" x1="219.54" y1="176.26" x2="200.46" y2="191.79" xlink:href="#linear-gradient-11"/><linearGradient id="linear-gradient-19" x1="166.62" y1="129.94" x2="207.12" y2="129.94" xlink:href="#linear-gradient-11"/><linearGradient id="linear-gradient-20" x1="187.23" y1="134.06" x2="188.87" y2="139.87" xlink:href="#linear-gradient-11"/><linearGradient id="linear-gradient-21" x1="167.72" y1="132.83" x2="177.24" y2="132.83" xlink:href="#linear-gradient-11"/><linearGradient id="linear-gradient-22" x1="153.54" y1="142.33" x2="171.06" y2="159.4" xlink:href="#linear-gradient-11"/><linearGradient id="linear-gradient-23" x1="146.26" y1="169.62" x2="171.19" y2="199.94" xlink:href="#linear-gradient-11"/><linearGradient id="linear-gradient-24" x1="95.37" y1="36.47" x2="106.08" y2="49.49" gradientUnits="userSpaceOnUse"><stop offset="0" stop-color="#d09bc0"/><stop offset="0.21" stop-color="#cc93ba"/><stop offset="0.54" stop-color="#c17ea9"/><stop offset="0.95" stop-color="#b05b8d"/><stop offset="0.96" stop-color="#af5a8c"/></linearGradient></defs><title>Approve</title><ellipse class="cls-1" cx="156.74" cy="268.93" rx="46.27" ry="80.15" transform="translate(-113.04 424.2) rotate(-89.69)"/><path class="cls-2" d="M131.62,253c0,1.79-5,2.46-8.54,1.87a10.92,10.92,0,0,1-7-4.49c-1.28-1.68-6.68-3.63-6.68-5v-4a12.59,12.59,0,0,1,.78-4l8.09-.46s2.09,2.72,2.25,3.81S131.62,251.19,131.62,253Z"/><path class="cls-2" d="M100.94,269.68c-2.5-.06-7.33-1.44-8.1-4.56-.5-2.07-.56-8.13-.56-12,0-1.94,0-3.3,0-3.3l9.39,1.78s.38,1.69.89,3.92c.77,3.36,1.82,7.91,2.23,9.59C105.5,267.92,103.82,269.76,100.94,269.68Z"/><path class="cls-2" d="M102.31,254.26c-.31.48-1.47-.3-3.39,0-2.39.34-4.72,1.55-5.55.78a7.34,7.34,0,0,1-1.09-1.89c0-1.94,0-3.3,0-3.3l9.39,1.78S101.8,252,102.31,254.26Z"/><path class="cls-3" d="M112.47,110.68c-4.18,1.48-8.75-2.91-9.21-4.52a11.35,11.35,0,0,1,0-3.21c.23-2.57.66-5.78.23-6.91,0,0,.83,0,2.07.13,3.63.28,10.78,1.23,10.94,4.15,0,.07,0,.13,0,.2C116.74,104.4,116.58,109.22,112.47,110.68Z"/><path class="cls-4" d="M116.06,102.36c-3.43-1-12.54-6.32-12.54-6.32.85,2.16-.23,6.91-.23,6.91a1,1,0,0,0,0,.1,4,4,0,0,0,1.14,1.48,8,8,0,0,0,2.56,1.53.76.76,0,0,0,.69,0c.14-.1.76.42.81.26-.68-.56-1-3-.67-4.34,1.94,2,4.76,3.55,7.5,2.94Z"/><path class="cls-5" d="M124.85,160.26s-.2,7.06-.4,15c-.22,8.84-.46,18.75-.46,21.15,0,4.57-4.85,43.73-4.85,43.73a3.53,3.53,0,0,1-1.37.75,9.12,9.12,0,0,1-4.68.13c-1.09-.21-2.23-.3-3-3.43,0,0-2.78-28.53-2.14-30.32.84-2.38.51-7.12.84-11.34s0-23.16,0-23.16-2-13.69.51-15.88S124.85,160.26,124.85,160.26Z"/><path class="cls-6" d="M129,78.46s8.23-17.88,8.7-19.19-.6-3-.84-5.14,1.33-5,2.14-5.29.65,3.17,1.1,3.47,1.52-1.64,2.13-3.07,1.06-5.57,2.4-5.29,3.21,6.78,2.94,9.26-4.15,6.21-5,8-6.32,22.6-6.32,22.6S136,92.88,130.52,89,129,78.46,129,78.46Z"/><polygon class="cls-7" points="121.35 100.03 130.06 78.42 127.86 77.54 118.89 99.64 121.35 100.03"/><path class="cls-7" d="M124.45,175.24c-.22,8.84-.46,18.75-.46,21.15,0,4.57-4.85,43.73-4.85,43.73a3.53,3.53,0,0,1-1.37.75c.33-3.84,3.22-37.52,3.58-43.09.38-5.91,0-20.27,0-20.27Z"/><path class="cls-8" d="M114.38,166.16s-.34,8.29-1.52,10.31-3.22,3.72-3.72,5.75-1.69,26-2.2,29.07-5.23,40.32-5.23,40.32-2.79,2.63-9.43,1.52c0,0-2.41-33-1.73-35.92a113.1,113.1,0,0,0,1.85-16.9c0-4.57-2.19-20.12-1.18-26.71S99.33,152,114.38,166.16Z"/><path class="cls-7" d="M106.34,181.37s-1,22.17-1.36,25.46-4.88,45.72-4.88,45.72l1.61-.94s5.7-41.85,5.52-43.17,1.91-27.07,1.91-27.07Z"/><path class="cls-9" d="M115.12,171.91l0-1S117,148.3,117,138v-.1l0,1.1C117.28,149.67,116.07,163.14,115.12,171.91Z"/><path class="cls-10" d="M126.81,131.85c.25,10.23-.69,43.75-.69,43.75-3.38,4.14-10.65,4.93-10.65,4.93L114,181s-13.1,2.71-23.92-5.57c0,0,1.42-41.44-.48-51.2l-.15-.76a8.72,8.72,0,0,1-1.19-1.62L76,100.84l8.14-7.55v0l.9-.83L99.32,105c1.13-.63,2-1.07,2.52-1.36.81-.41,1.13-.54,1.13-.54l7,4.06a3.58,3.58,0,0,0,4.55-.82,3.37,3.37,0,0,0,.68-1.25l.38-1.26.46-1.49s.22-.37.55-.89A11.91,11.91,0,0,1,119,98.64a1,1,0,0,1,.51-.16l8.36-20.94,2.2.88,8.5,3.4-12,33.16C126.72,120.26,126.67,126.47,126.81,131.85Z"/><path class="cls-7" d="M130.06,78.42s-7.76,18.15-10.75,23.72a11.29,11.29,0,0,1-4.76,4.22l1.06-2.51,1-2.38A11.91,11.91,0,0,1,119,98.64a1,1,0,0,1,.51-.16l8.36-20.94Z"/><path class="cls-11" d="M89.48,123.5c4,6.08,11,9.32,11.6,14.35,1.53,12.8,2.27,23-.09,31.36-2.49,8.8-3.77,10.17-3.77,10.17s-3-1.29-3.92-1.81-3.2-2.11-3.2-2.11l-.62-52Z"/><path class="cls-12" d="M115.22,105.12c-1.68,6.09-8.36,2.24-11.6-.08-1.09-.78-1.79-1.38-1.79-1.38l1.62-1.52h0c.53.51,1,1,1.52,1.36C112.22,109.53,115,105.43,115.22,105.12Z"/><path class="cls-13" d="M119.52,81.61a3.38,3.38,0,0,1,.71,1.7,47.58,47.58,0,0,1,.14,5.47c0,.76.58,1.52.64,3.17s-1.21,10-5.87,10.54-7.69-2.24-9-3.38a58.66,58.66,0,0,1-4.31-5.2s-2.66-4.69-3.23-7.35.5-8.18,2.6-8.75l2.09-.57a3,3,0,0,1,1.74-1.94c2.39-1.18,4.11-.31,6.21,1,1.77,1.1,3.63,2,5.39,3.15A10.78,10.78,0,0,1,119.52,81.61Z"/><path class="cls-8" d="M120.77,79.2a3.61,3.61,0,0,1-1.67,2.88,2.56,2.56,0,0,1-1.6.42c-6.42-1.22-7.3,1.8-7.84,2-1,.38-2.12-.48-3.11-.11a2.09,2.09,0,0,0-1.11,2.12c0,.85.29,1.69.25,2.54,0,.32.29,1.06.1,1.37-.06.09-.73-.08-.82-.08l-.51-1a4.6,4.6,0,0,0-.57-1.09c-.43-.57-.77-1-1.22-1a1.14,1.14,0,0,0-.66.25c-.94.66-.81,2.14-.25,3.15a19.65,19.65,0,0,1,1.84,2.93,3.5,3.5,0,0,1,0,2.17c-.75.26-1.49-.4-2-1-2.31-3.18-1.59-5.41-4.28-8.29a1.43,1.43,0,0,1-.48-.06A4.29,4.29,0,0,1,94,81.45c.85-5.78,7-5.91,11.27-9.08,1.5-1.11,6.4-6.05,14.18-1.16C121.85,72.71,121.06,76.4,120.77,79.2Z"/><path class="cls-14" d="M103.64,95.75c-.75.26-1.49-.4-2-1-2.31-3.18-1.59-5.41-4.28-8.29a1.43,1.43,0,0,1-.48-.06h0a.74.74,0,0,1,0-.49.7.7,0,0,1,.53-.22c1.8-.18,4.44-.36,5.17,1.61a1.14,1.14,0,0,0-.66.25c-.94.66-.81,2.14-.25,3.15a19.65,19.65,0,0,1,1.84,2.93A3.5,3.5,0,0,1,103.64,95.75Z"/><path class="cls-15" d="M117,101.48a1.6,1.6,0,0,0-.43-1,2.26,2.26,0,0,0-.53-.45,6.24,6.24,0,0,0-1.66-.62,52.46,52.46,0,0,1-8.76-3.28"/><path class="cls-16" d="M84.15,93.27l-16-25.7a17,17,0,0,0-.75-6.68c-1.13-2.8-1.78-3.08-1.78-3.08s-1.32.66-.85,3.57-.94,2.34-.94,2.34-6.66-5-6.52-8.3S55.21,54.15,55,55s-2.06,5.86-1.12,8.16,5.86,7.56,9.24,8.54S77.16,99.76,77.16,99.76Z"/><path class="cls-7" d="M103.17,104.71a21,21,0,0,1-3,1.38h0a4.59,4.59,0,0,1-1.28.27,2.53,2.53,0,0,1-1-.5c-3.43-2.4-13.73-12.57-13.73-12.57v0l.9-.83L99.32,105c1.13-.63,2-1.07,2.52-1.36Z"/><polygon class="cls-17" points="183.44 220.72 140.09 195.76 140.09 147.7 183.44 172.66 183.44 220.72"/><polygon class="cls-18" points="183.44 220.73 226.79 195.77 226.79 147.71 183.44 172.67 183.44 220.73"/><polygon class="cls-19" points="183.59 172.73 140.13 147.64 183.32 122.7 226.79 147.79 183.59 172.73"/><g class="cls-20"><polygon class="cls-21" points="183.43 181.15 138.23 155.12 138.23 143.08 183.43 169.11 183.43 181.15"/><polygon class="cls-22" points="183.44 181.15 228.65 155.12 228.65 143.09 183.44 169.12 183.44 181.15"/><polygon class="cls-23" points="183.6 169.19 138.26 143.01 183.31 117 228.65 143.18 183.6 169.19"/></g><polygon class="cls-24" points="155.38 133.13 200.38 159.23 211.15 153.28 165.56 127.25 155.38 133.13"/><polygon class="cls-25" points="200.54 171.34 200.38 159.23 211.15 153.28 211.4 165.09 200.54 171.34"/><polygon class="cls-26" points="198.06 172.73 198.06 212.31 208.32 206.41 207.55 167.31 198.06 172.73"/><path class="cls-27" d="M179.32,125.28a26.6,26.6,0,0,0-1.35-6.2,6.5,6.5,0,0,0-4.51-4.1c-2.92-.53-5.72,2-6.51,4.82s0,5.91.92,8.72a54.65,54.65,0,0,0,8.47,15.59,1.71,1.71,0,0,0,1.9.84,86.7,86.7,0,0,0,17.56-3.41,23.19,23.19,0,0,0,7.34-3.35,9.49,9.49,0,0,0,4-6.77c.14-2.7-1.57-5.55-4.2-6.18-2.27-.55-4.58.55-6.61,1.69-3.86,2.15-7.85,6.23-11.86,7.76S179.82,128.47,179.32,125.28Z"/><path class="cls-28" d="M182.47,141.44l8.79-5.89a20.11,20.11,0,0,1,3.8-2.16,6.66,6.66,0,0,1,4.29-.3,4.24,4.24,0,0,1-.88,4,10,10,0,0,1-3.5,2.49,45.52,45.52,0,0,1-8.58,3c-1.48.38-3,.7-4.47,1-1.2.24-3,.93-4.21.68C179.29,143.35,180.92,142.48,182.47,141.44Z"/><path class="cls-29" d="M175.31,129.61a25.91,25.91,0,0,0-2.64-7.37,2.78,2.78,0,0,0-.77-1.12,2.88,2.88,0,0,0-2.52-.09,2.34,2.34,0,0,0-.85.38c-.87.72-.9,3-.72,4.16,1.06,6.64,8.71,18.64,9.38,19.3C177.57,143.58,175.56,131.36,175.31,129.61Z"/><polygon class="cls-30" points="180.49 147.7 164.53 158.18 165.15 170.62 155.38 165 155.38 152.89 172.48 143.05 180.49 147.7"/><polygon class="cls-31" points="157.53 166.26 157.43 205.74 165.51 210.42 166.08 171.18 157.53 166.26"/><path class="cls-32" d="M101.73,42.33s-5.24-6.2-9.28-.59c-4.18,5.8,9.29,13.17,9.29,13.17s14.4-8.23,9.11-13.78C106,36,101.73,42.33,101.73,42.33Z"/></svg>